<?xml version="1.0" encoding="UTF-8" standalone="no"?>
<!-- Created with Inkscape (http://www.inkscape.org/) -->

<svg
   xmlns:dc="http://purl.org/dc/elements/1.1/"
   xmlns:cc="http://creativecommons.org/ns#"
   xmlns:rdf="http://www.w3.org/1999/02/22-rdf-syntax-ns#"
   xmlns:svg="http://www.w3.org/2000/svg"
   xmlns="http://www.w3.org/2000/svg"
   xmlns:sodipodi="http://sodipodi.sourceforge.net/DTD/sodipodi-0.dtd"
   xmlns:inkscape="http://www.inkscape.org/namespaces/inkscape"
   width="720.54633"
   height="767.79596"
   id="svg2"
   version="1.1"
   inkscape:version="0.48.5 r10040"
   sodipodi:docname="Leaves.svg">
  <defs
     id="defs4" />
  <sodipodi:namedview
     id="base"
     pagecolor="#ffffff"
     bordercolor="#666666"
     borderopacity="1.0"
     inkscape:pageopacity="0.0"
     inkscape:pageshadow="2"
     inkscape:zoom="0.65788212"
     inkscape:cx="289.13818"
     inkscape:cy="362.17653"
     inkscape:document-units="px"
     inkscape:current-layer="layer1"
     showgrid="false"
     inkscape:window-width="1366"
     inkscape:window-height="705"
     inkscape:window-x="-8"
     inkscape:window-y="-8"
     inkscape:window-maximized="1"
     fit-margin-top="0"
     fit-margin-left="0"
     fit-margin-right="0"
     fit-margin-bottom="0" />
  <metadata
     id="metadata7">
    <rdf:RDF>
      <cc:Work
         rdf:about="">
        <dc:format>image/svg+xml</dc:format>
        <dc:type
           rdf:resource="http://purl.org/dc/dcmitype/StillImage" />
        <dc:title></dc:title>
      </cc:Work>
    </rdf:RDF>
  </metadata>
  <g
     inkscape:label="Layer 1"
     inkscape:groupmode="layer"
     id="layer1"
     transform="translate(-12.081467,-30.702162)">
    <path
       style="fill:#aa4400"
       d="m 302.43607,739.07365 c -1.85019,1.5519 -6.27506,1.67722 -8.05839,0.22822 -1.44558,-1.1746 -2.35453,-5.42719 -3.94078,-18.43738 -2.86636,-23.50928 -19.24954,-66.19266 -33.70063,-87.80081 l -5.53978,-8.28342 -4.87018,3.22607 c -11.11788,7.36463 -13.63438,15.53442 -11.50667,37.35611 0.80348,8.24046 0.74227,12.78431 -0.17933,13.3145 -0.76947,0.44267 -1.57415,0.30171 -1.78815,-0.31328 -0.78042,-2.24266 -2.75133,1.92214 -4.63479,9.79396 -1.83557,7.67165 -4.26559,15.34768 -5.2631,16.6252 -0.96072,1.23042 -1.90978,-0.72113 -2.33094,-4.79308 -1.0256,-9.91616 -5.91267,-6.47066 -15.10906,10.65228 -3.03455,5.65007 -8.09311,10.43842 -9.67209,9.15544 -0.60275,-0.48976 -0.57096,-1.53657 0.0707,-2.32624 1.72309,-2.12063 1.91594,-10.74512 0.34144,-15.26962 -1.51166,-4.34396 -2.96984,-5.07033 -8.50047,-4.23429 -3.9132,0.59152 -17.08364,5.76837 -21.24244,8.34967 -12.85602,7.97953 -20.46777,11.27361 -27.64262,11.96272 -4.09487,0.3933 -7.98257,0.27848 -8.63933,-0.25518 -0.65677,-0.53364 -0.86355,-1.13924 -0.45952,-1.34576 10.14515,-5.18584 13.02625,-8.6239 12.9098,-15.40544 -0.15972,-9.30241 -3.70673,-9.54673 -50.42426,-3.47316 -13.94765,1.81327 -14.417529,1.43639 -5.95539,-4.77685 6.597103,-4.84384 16.86223,-17.28979 17.73979,-21.50858 0.8434,-4.05458 0.26003,-7.47347 -1.7217,-10.09011 -2.356179,-3.11104 -11.682611,-7.00818 -23.102586,-9.65362 -9.93034,-2.30037 -14.537979,-4.6189 -16.675342,-8.39093 -1.164676,-2.05543 1.417853,-3.68467 3.350919,-2.11399 3.838828,3.11919 13.81974,-3.96475 12.831751,-9.1073 C 78.139315,629.1212 63.26475,605.9602 58.956267,601.38041 57.055024,599.35944 52.09281,592.6218 47.92913,586.40786 39.724847,574.16365 29.784102,561.82023 24.785854,557.67084 c -5.510043,-4.57425 -2.249165,-5.0365 7.281087,-1.03211 14.319521,6.01672 26.282508,7.82982 42.54259,6.44772 4.567483,-0.38824 11.786613,-0.353 16.042524,0.0783 8.391612,0.85044 14.358815,-0.93842 16.141175,-4.83881 1.17378,-2.5686 -0.443,-9.80262 -4.16266,-18.62507 -1.45259,-3.44532 -2.868324,-7.76852 -3.146073,-9.60712 -1.141175,-7.55397 -4.331861,-15.57554 -8.329009,-20.93959 -12.575057,-16.87538 -18.591152,-27.79794 -17.248466,-31.3156 0.412861,-1.08166 0.874173,-0.84486 2.203027,1.13086 2.49187,3.70486 9.071279,8.6031 12.730734,9.4778 1.766449,0.42222 4.324285,0.0851 5.684073,-0.74911 2.19381,-1.3459 2.563976,-2.64708 3.28559,-11.5492 1.748594,-21.57146 -3.45596,-41.5518 -13.887912,-53.31585 -4.853629,-5.4734 -7.976281,-11.24695 -6.83959,-12.64589 0.579833,-0.71361 2.484213,-0.0534 5.779525,2.00358 2.703105,1.68733 6.154249,3.32713 7.669209,3.64397 4.913053,1.02754 35.131212,12.23457 48.210552,17.87987 7.90144,3.41043 10.03513,2.82613 10.93721,-2.99507 0.31097,-2.00677 -0.35262,-7.48831 -1.47468,-12.1812 -1.12207,-4.69289 -1.86777,-9.01022 -1.65714,-9.59409 0.2639,-0.73152 2.64183,1.02535 7.64889,5.6512 23.0728,21.31615 28.41711,24.90237 33.50878,22.48562 2.43643,-1.15645 2.85994,-1.78706 3.3578,-4.99975 0.31332,-2.02201 0.17098,-4.58148 -0.31637,-5.68772 -1.16853,-2.6525 0.54701,-4.61135 2.83577,-3.238 0.99731,0.59843 2.89479,2.90154 4.21663,5.11804 1.32185,2.21649 5.15462,7.73631 8.51725,12.26628 5.0244,6.7686 7.17201,8.94308 12.05179,12.20261 3.26584,2.18148 6.60024,4.05209 7.40976,4.15689 1.1749,0.15213 4.86142,-4.30959 18.27087,-22.11283 15.4942,-20.57108 17.00994,-22.87512 19.51475,-29.66403 3.35205,-9.08514 5.08404,-11.42738 7.18673,-9.71888 2.60802,2.11911 7.80365,16.50971 10.40882,28.82989 0.5991,2.83319 1.68124,6.50878 2.40475,8.16795 1.18076,2.70772 1.55519,3.00391 3.65596,2.89199 1.28727,-0.0686 2.73177,0.19324 3.20999,0.58182 1.0418,0.84651 0.8753,8.02785 -0.2498,10.77381 -1.15361,2.81555 7.94732,22.37114 13.98072,30.041 4.62754,5.88269 5.06058,6.23273 8.94364,7.22927 5.38171,1.38111 17.06164,-0.1398 26.18241,-3.40938 9.24705,-3.31485 12.61333,-6.03001 13.08139,-10.55114 0.19053,-1.84079 0.56446,-2.72311 0.83084,-1.96075 0.28876,0.82639 0.80397,0.99275 1.27588,0.41197 0.43534,-0.53578 1.04522,1.15352 1.35531,3.75399 0.60212,5.04954 -2.9848,16.38244 -11.21676,35.43948 -3.04281,7.04413 -3.95988,10.42488 -3.50835,12.93337 0.33624,1.86797 0.90309,3.63336 1.25966,3.92308 0.35657,0.28973 3.50878,0.47364 7.00491,0.40869 7.16153,-0.13305 14.03121,1.29242 16.7769,3.48124 1.46573,1.1684 1.49486,1.64805 0.14241,2.34228 -10.76466,5.52562 -22.21902,14.83233 -26.29848,21.36759 -6.11646,9.79852 -5.59424,12.20864 3.38937,15.6429 3.35838,1.28386 6.14249,2.68558 6.1869,3.11496 0.12324,1.19148 -4.23677,3.0878 -11.26129,4.89793 -3.48827,0.89889 -9.16686,2.89902 -12.61907,4.44475 -5.68152,2.54388 -6.25527,3.01811 -6.05022,5.0007 0.1246,1.20465 0.72546,2.59569 1.33525,3.09116 2.73675,2.2237 -2.2737,3.81073 -16.17294,5.12269 -8.25103,0.77881 -16.4848,1.09863 -18.29728,0.7107 -8.23874,-1.76335 -15.66912,2.55338 -24.96031,14.50086 -6.00572,7.72272 -6.49539,8.64455 -5.42466,10.21202 2.77085,4.05625 11.44731,19.14314 15.04531,26.1612 8.03047,15.66377 18.11811,41.7147 25.29538,65.3243 1.54361,5.07765 4.54862,12.61846 6.67782,16.75736 4.04168,7.85651 4.0295,8.06636 -0.69868,12.0323 z"
       id="path3164"
       inkscape:connector-curvature="0" />
    <path
       style="fill:#aa4400"
       d="m 731.84036,226.52162 c -6.18934,7.02962 -16.02585,9.85948 -21.59825,17.6131 -8.45202,10.38952 -17.94737,19.88712 -26.8854,29.83463 -4.22054,4.02139 -9.90571,6.37196 -13.56277,10.96316 -3.80274,3.88146 1.34172,10.43254 -3.20148,13.28712 -7.47279,3.90462 -16.30052,4.91916 -24.482,2.89115 -8.65753,-1.27113 -14.10583,-9.39937 -22.63946,-11.0048 -3.61872,1.31435 2.71142,6.16335 3.935,8.44572 15.17187,19.15479 28.5884,39.64675 41.34667,60.46732 11.32677,18.92184 21.32682,38.59134 32.17896,57.78037 5.22022,9.98386 11.51204,19.41172 18.82934,27.97913 4.46228,4.04688 -4.87204,7.67101 -5.30008,1.85917 -12.16998,-20.90583 -23.47492,-42.29745 -35.12252,-63.49403 -15.97006,-28.00226 -32.98776,-55.5608 -53.10296,-80.80667 -2.5871,-2.26277 -5.71005,-8.9473 -8.91531,-7.60462 3.01686,5.1986 5.84221,10.99521 5.95728,17.13147 -0.69408,8.05843 -2.39852,17.07653 -9.49684,22.06119 -1.32748,1.28928 -2.6817,2.45842 -4.53581,1.38046 -4.20094,-2.2256 -7.27503,0.68079 -9.03147,4.45141 -4.16596,5.87679 -7.19244,12.76248 -12.73369,17.5188 -4.76449,1.32596 -7.49476,5.45804 -10.78046,8.85393 -9.86144,10.20938 -15.60101,23.38455 -22.97091,35.31434 -0.51694,2.63643 -7.47932,7.35446 -4.60841,1.70341 3.47394,-6.74957 4.3664,-14.46044 8.03594,-21.11412 2.39241,-7.51698 -1.16215,-16.29401 3.6831,-23.14332 4.51189,-5.23811 -2.81368,-8.07536 -7.24848,-8.36203 -4.05599,-0.20211 -9.58299,-1.77841 -12.28983,2.21714 -6.18671,6.86033 -15.28379,9.5714 -22.788,14.59258 -8.93041,4.55702 -18.87653,6.69089 -27.73687,11.43978 -4.48848,2.03979 -8.30553,5.33387 -12.7378,7.40834 -1.80809,-3.78116 4.67561,-8.32952 5.1742,-12.76453 1.85123,-6.74945 1.62162,-13.88931 -0.29796,-20.59015 -0.096,-1.9049 -0.91922,-3.27453 -2.77905,-3.88117 -5.62887,-3.43606 -11.67274,-6.80163 -18.48733,-6.63175 -5.93399,-0.27843 -12.60922,1.20905 -17.86822,-2.26508 -2.51112,-3.85792 -2.86318,-9.19006 -8.26266,-10.53537 -8.11335,-4.64544 -16.04486,-10.66659 -25.73721,-11.19212 -7.24477,-0.91507 -13.62819,3.14823 -20.32796,5.02567 -3.26242,-1.78701 5.03333,-6.07765 7.40205,-7.81815 4.60186,-2.69915 8.93732,-5.97758 14.25716,-7.14337 6.20749,-2.34502 12.03638,-6.23143 15.74766,-11.82433 4.37867,-4.81057 11.29603,-7.2017 13.94795,-13.55296 2.51901,-5.03852 1.13693,-10.68009 -0.0444,-15.87308 16.31108,0.46848 28.87091,-2.42691 36.20166,-8.37493 -0.39681,-3.56937 -0.79361,-7.13877 -1.19038,-10.70815 -6.26593,-4.46274 -13.35212,-7.66341 -20.63477,-10.07253 -4.98886,-0.93555 -9.01527,-4.51246 -13.29839,-7.04876 -8.413,-6.05627 -17.62677,-12.44587 -28.37426,-12.74996 -4.39895,-2.13816 3.77413,-4.39658 5.7523,-5.24766 6.36752,-3.44858 13.68172,-8.25811 14.09689,-16.26292 0.16624,-3.26346 -0.29934,-6.69668 -1.09307,-9.81529 -4.59123,-5.63692 -9.50074,-11.03007 -13.79303,-16.89888 -0.92264,-4.23685 2.67865,-8.85886 0.61461,-13.49227 -0.47335,-5.47059 -2.26912,-10.70301 -5.3241,-15.27395 -5.8036,-9.98128 -11.66483,-20.89044 -22.2174,-26.59194 -3.08517,-0.96585 -3.37252,-3.95561 0.41647,-3.09675 12.19581,1.91498 20.92192,13.33468 33.55794,13.57298 5.56369,-0.40825 11.83332,-1.18942 16.06213,-5.1748 2.03464,-4.61058 5.6635,-6.63317 9.44959,-2.18825 6.99855,4.75598 14.96895,8.7479 23.47399,9.6532 5.88351,1.2009 9.95227,-3.72138 12.54651,-8.24538 2.20802,-4.27696 6.25238,-8.25728 6.3006,-13.27412 0.49655,-5.4278 -4.73159,-10.597393 -3.52539,-15.360671 4.88336,1.497195 7.4398,7.152169 10.94087,10.681841 7.63946,9.83123 16.98415,18.20563 27.2891,25.15761 3.81723,2.82775 7.13384,6.31334 9.36466,10.48323 4.33079,4.74592 9.14694,10.49581 16.16209,10.51955 5.25438,1.47541 9.925,-2.20866 12.73987,-6.29893 2.79798,-5.89129 0.78735,-12.6064 0.95265,-18.85776 0.1144,-6.33678 2.31959,-12.5157 1.47995,-18.90699 -1.40205,-4.573095 2.2884,-7.153945 6.24987,-4.963394 6.38603,0.210664 12.8841,-3.433603 15.35912,-9.477004 2.73854,-4.38698 2.93052,-10.290994 6.99124,-13.782573 5.86878,-3.384318 8.89947,-9.723518 12.30052,-15.294509 4.92391,-7.768064 6.66711,-17.176822 12.27609,-24.54 1.716,-1.345223 7.59962,-6.810464 8.4147,-3.409774 -3.45114,4.391333 -7.68576,8.888021 -7.12611,15.00194 -0.19786,10.079198 2.91415,20.139675 9.10212,28.139674 3.96194,5.776004 8.77933,12.213906 16.28133,13.128602 5.43104,-0.56967 8.39264,3.990686 8.57766,8.88627 1.89313,9.997408 2.80687,20.458848 7.28412,29.718538 4.89829,5.30497 12.23508,8.06791 19.36573,8.54569 5.85924,0.71504 12.17423,1.05993 17.3326,-2.37027 2.47453,-2.15331 4.465,-1.07782 1.58379,1.51735 -2.79335,3.75796 -6.91956,6.08892 -10.261,9.23743 -2.77787,4.38402 -1.54045,10.10151 -2.13799,15.06795 -0.21751,12.28669 -4.48261,23.98834 -9.3915,35.09303 -3.15635,6.2516 -6.61701,13.03245 -5.98592,20.22908 2.5489,8.6337 11.45657,13.47434 19.54047,15.89433 6.46186,1.36699 12.62123,4.89186 19.4154,3.7213 5.85369,-0.78334 11.75902,-1.86591 17.31568,-3.87939 1.45331,-1.00689 5.09053,-7.10575 5.42673,-4.76989 l -0.34847,0.72906 -0.43894,0.83135 -4e-5,1e-5 z"
       id="path3380"
       inkscape:connector-curvature="0"
       sodipodi:nodetypes="cccccccccccccccccccccccccccccccccccccccccccccccccccccccccccccccccccccccccccccccccccccccccccccccc" />
    <path
       style="fill:#aa4400"
       d="m 27.081085,383.47944 c -2.619213,-4.21729 -1.4332,-9.67833 4.191751,-9.23429 5.326951,-1.40975 10.836984,-2.35466 16.012476,-4.20119 17.829282,-10.02445 33.895619,-22.83114 49.768407,-35.64481 17.215331,-14.17324 33.024431,-29.92346 49.344531,-45.09129 4.81583,-4.80776 9.90929,-9.45582 13.88278,-14.98421 -2.25354,-3.56471 -7.07009,1.25627 -10.05422,2.32237 -10.77226,5.68394 -21.54452,11.36786 -32.31683,17.05172 -7.08208,0.36479 -14.15157,0.97088 -21.241229,1.18529 -5.567872,-1.74589 -11.905441,-2.4557 -16.189226,-6.83041 -9.530514,-6.32261 -19.808433,-11.38141 -29.787794,-16.93364 -5.568607,-8.38323 -11.905873,-16.22431 -18.798368,-23.54448 -3.56708,-4.54702 -7.645404,-8.87353 -10.269845,-14.04092 -3.180679,-7.70201 -6.361372,-15.40402 -9.542051,-23.10603 2.392044,-4.9646 7.194747,-5.20138 12.061153,-4.90628 14.1593,-0.36928 28.325934,-1.86375 42.065203,-5.4001 4.413255,-0.97139 8.706642,1.23085 13.020127,1.97403 10.71705,2.66428 21.24879,6.50519 30.69963,12.25308 7.16814,6.19308 13.72554,13.35845 22.07563,18.00643 5.75458,0.42416 -0.0445,-5.9648 -1.7381,-7.78487 -5.5707,-6.95774 -11.1414,-13.91546 -16.71211,-20.87318 -3.25099,-10.87786 -6.34753,-21.98019 -12.18059,-31.81914 1.80312,-7.23915 3.77981,-14.45443 5.31062,-21.77227 2.42979,-10.89107 4.70153,-21.84551 8.16295,-32.46901 4.91426,-6.81862 7.66651,-14.9179 12.68644,-21.688314 6.67152,-9.71769 13.65351,-19.26748 19.01154,-29.805841 2.07618,-4.193358 5.16714,-7.719261 7.94607,-11.408222 3.0868,-4.984152 5.37346,-10.39749 7.9993,-15.625323 5.7295,-1.533073 3.95239,4.315782 4.97683,7.826835 5.81965,20.752102 12.92,41.152031 20.67621,61.260495 2.02865,6.16958 5.61518,11.88677 6.89248,18.23793 1.07225,7.8837 1.43379,16.09749 4.85813,23.41558 2.54364,2.1745 3.78632,-5.01335 5.95911,-6.30744 6.17482,-8.59029 13.45307,-16.61143 22.23857,-22.56935 9.90895,-4.89668 19.28606,-10.92546 29.48427,-15.20102 18.38465,-7.026044 36.84372,-14.000874 55.94942,-18.835904 5.49776,-1.58928 10.55028,-4.44575 15.65404,-6.847 6.0103,-0.99048 12.02059,-1.98097 18.03088,-2.97147 3.85434,5.02016 -5.28242,7.54379 -7.48439,11.2991 -4.47816,2.93498 -4.61129,8.54408 -6.40229,13.120574 -3.96152,12.3094 -7.29193,24.87438 -8.69852,37.75407 -1.94883,10.21309 -4.46534,20.41395 -7.77852,30.23114 -2.78247,4.05625 -5.56495,8.11249 -8.34742,12.16873 0.26274,2.08565 0.52549,4.1713 0.78824,6.25695 -6.81921,3.23305 -9.09113,11.08651 -13.99831,16.21885 -3.6685,1.83979 -7.26693,3.85819 -10.90346,5.77838 -2.29116,6.87625 7.37656,3.55585 11.21797,4.63078 8.0108,0.37732 16.08847,-0.12903 24.05815,-0.007 14.67413,3.83983 29.08724,8.72339 42.82265,15.18695 9.43225,3.91095 18.84468,8.07618 28.51835,11.26711 6.25013,0.45579 12.50026,0.91158 18.7504,1.36738 4.11597,4.04013 -2.24442,5.52184 -4.95092,7.51421 -11.61936,6.73311 -23.19643,13.57464 -34.01607,21.5574 -18.53466,12.80839 -37.93019,24.33204 -57.66065,35.18171 -3.75834,0.52451 -10.23142,-1.08816 -12.13103,1.98202 2.08248,4.88355 6.92536,7.75161 10.46279,11.50834 4.30196,3.76484 8.36067,7.99436 10.72823,13.27212 3.2396,4.82046 9.54967,4.41202 14.63032,4.19304 3.13411,2.16819 3.43977,6.08156 -0.85823,7.26006 -7.06321,4.60749 -13.47134,10.4473 -21.4982,13.34613 -8.30963,3.46803 -16.46183,7.50514 -24.92433,10.49118 -7.60429,0.81103 -15.70705,0.52749 -22.62901,4.19012 -5.20552,-0.0155 -10.67518,-2.52753 -15.79006,-0.1846 -4.96968,1.57696 -10.6068,-2.09742 -15.86221,-2.66249 -4.41025,-1.37785 -9.29268,-1.79036 -13.38178,-3.90096 -7.0036,-5.03991 -14.0072,-10.07982 -21.01079,-15.11973 -5.44704,-10.72444 -10.89409,-21.44888 -16.34112,-32.17332 -0.45139,-7.43924 -0.58329,-14.89758 -1.23335,-22.32451 -3.46387,-4.92135 -4.76229,-11.96668 -9.74493,-15.39831 -3.99195,-4.30771 -6.62854,1.96483 -9.7875,4.21231 -17.46571,16.78004 -34.97962,33.52269 -52.62888,50.10257 -20.603447,15.95439 -40.787476,32.56563 -62.856741,46.49975 -6.593691,0.98458 -13.187378,1.96918 -19.781068,2.9538 l -0.702791,-0.70629 -0.702674,-0.70563 -1.8e-5,10e-6 z M 149.71121,250.00209 c 3.02906,5.71764 7.73577,10.29152 12.53476,14.53156 4.10678,-3.90635 -2.39208,-6.63448 -4.32026,-9.78104 -3.28205,-3.59663 -6.60421,-7.17892 -10.32189,-10.33468 -0.21039,2.07635 1.39457,3.76229 2.10739,5.58416 z m 31.26946,30.06759 c 1.47554,4.59751 7.12577,4.36637 10.73474,6.47317 3.20363,1.89938 6.8262,0.75742 10.29506,0.6753 5.73297,-0.4217 11.46594,-0.84342 17.19892,-1.26512 -6.14663,-5.44206 -13.68191,-8.87391 -20.68197,-13.03217 -5.7791,1.26023 -13.65411,-0.76063 -18.08558,2.6218 -0.56316,1.48872 -0.26516,3.18638 0.53883,4.52702 z m 0.75716,-14.44756 c 4.24155,2.30804 7.57947,-2.42088 11.32713,-3.77667 4.40967,-2.68373 9.26364,-4.79236 13.32731,-7.95826 3.91691,-3.84188 7.83382,-7.68377 11.75073,-11.52565 -9.54534,4.29896 -19.44245,7.98644 -28.76516,12.67472 -3.56391,3.22396 -7.12783,6.44791 -10.69175,9.67187 1.01725,0.30466 2.03449,0.60932 3.05174,0.91399 z"
       id="path3408"
       inkscape:connector-curvature="0" />
    <path
       style="fill:#aa4400"
       d="m 610.19261,396.94852 c -1.22065,1.28842 -2.64189,2.48394 -2.66962,4.40394 -0.98151,3.76716 -1.54684,7.68826 -2.82979,11.34924 -3.47694,7.54528 -8.29475,14.4176 -13.52439,20.81264 -6.28202,3.79123 -11.41727,9.08532 -16.62094,14.18816 -1.56606,0.72755 -3.80656,0.52995 -4.48145,2.42796 -0.94001,1.56981 -1.87026,3.14042 -3.65989,3.84359 -5.36481,3.4005 -10.87626,6.7293 -15.93606,10.51073 -2.51293,4.05334 -4.70808,8.3095 -7.14368,12.3797 -0.97899,1.35687 -2.51385,2.51326 -2.01506,4.37564 -0.10691,1.4212 0.59774,3.30428 -1.27536,3.7416 -0.89935,1.05645 -0.15719,3.0419 -0.39123,4.47488 0.66936,1.93302 -1.24504,2.05767 -2.57678,2.6252 -10.24184,-9.07609 -20.14292,-18.90055 -32.58802,-24.9578 -10.64509,-6.01734 -21.58154,-11.73464 -31.22511,-19.30455 -5.58664,-4.66367 -10.30806,-10.31466 -16.15377,-14.66501 -1.93498,-1.11914 -5.54562,-1.9538 -4.47797,1.3343 0.31494,2.09755 2.47075,3.60402 3.29468,5.58002 3.99659,6.47999 8.16159,12.98123 11.06721,20.02681 1.93575,8.65275 4.60419,17.17414 5.08937,26.08541 0.30452,4.8468 1.25382,9.58961 2.17096,14.33476 1.12406,6.90528 1.71177,14.00474 3.92452,20.6631 -0.65708,1.36642 -2.40925,1.56266 -3.18118,-0.11284 -5.98005,-5.65786 -13.00088,-10.17375 -20.16415,-14.18234 -2.52092,-1.47098 -5.49639,-2.36567 -7.90646,-3.91163 -2.67204,-4.11369 -7.31055,-6.45556 -10.96117,-9.61047 -4.8448,-3.31769 -8.6827,-7.77625 -11.80575,-12.71489 -4.25024,-5.7417 -6.82428,-13.05945 -12.9999,-17.11563 -1.71038,0.96205 0.14331,4.84113 0.46438,6.73609 1.92906,6.24428 4.49168,12.29267 6.79823,18.38497 2.0486,15.60935 3.08751,31.32278 3.97899,47.03221 0.6204,10.67372 3.5222,20.9948 6.46823,31.20896 1.35347,5.04031 1.73303,10.3308 2.7589,15.39901 2.65347,3.4295 3.46221,7.96231 6.53613,11.0751 3.03649,4.49389 4.96819,9.68124 8.52112,13.83432 1.51673,3.22917 -0.3715,2.0872 -1.75268,0.3671 -2.48648,-2.56905 -6.18292,-3.23321 -8.81925,-5.6667 -1.32401,-1.02964 -2.58663,-2.09445 -4.35063,-1.85389 -9.00633,-2.8975 -17.49544,-7.1701 -26.40434,-10.34087 -6.47702,-5.81612 -12.66589,-12.04181 -19.85627,-16.97958 -2.50136,-1.50508 -1.51425,1.7817 -1.68838,3.19202 -0.2473,2.29235 1.8048,3.95444 2.67112,5.94042 2.36815,4.20417 5.14809,8.23175 7.29223,12.53528 0.59649,2.56124 1.67322,5.13351 2.031,7.67492 -0.87394,1.43335 -0.70346,2.94851 -0.22472,4.48781 0.94344,5.26757 2.38624,10.41008 4.49374,15.33288 2.29505,6.02952 4.00714,12.29935 6.46156,18.25463 4.29302,8.06122 8.50935,16.18064 11.82172,24.69997 1.65882,1.66285 0.36561,4.27494 2.40531,5.6613 4.10322,4.80722 7.47632,10.18058 10.95752,15.42202 5.66456,5.28947 11.21877,10.73394 16.95177,15.92731 7.47653,4.17295 16.19726,5.18732 23.93952,8.7656 5.95254,2.76355 12.27883,4.70289 18.14124,7.62941 1.51822,0.70323 -0.13791,2.71267 -0.06,4.02264 -0.34881,2.60788 -2.60026,4.39194 -3.8419,6.61323 -6.25793,8.98406 -13.17556,17.56354 -20.91865,25.31154 -5.21931,4.98669 -10.16813,10.26168 -15.83631,14.76915 -7.81663,7.15574 -17.31476,12.08471 -26.78759,16.6376 -5.59209,1.41372 -11.45024,2.20556 -16.6085,4.91356 0.31495,1.65786 -0.14853,3.6578 0.69548,5.10096 1.23025,0.99843 1.94445,3.24046 3.82281,2.79595 1.84593,0.37775 3.31459,-0.61593 4.79329,-1.57319 11.16006,-6.43973 22.0755,-13.30383 32.35251,-21.09196 5.95959,-4.62523 12.38717,-8.76363 17.75915,-14.07602 9.94126,-11.39772 18.57508,-23.89367 28.72726,-35.10224 0.92083,-1.47602 2.40465,-1.81318 4.04186,-1.84005 2.79476,-0.27095 5.61467,-1.07646 8.36874,-0.14215 4.9254,0.85899 9.82006,2.06729 14.77199,2.66965 3.3605,-0.13911 6.80217,0.32687 10.10928,-0.25664 3.39364,-1.03377 7.01859,-1.48028 10.25887,-2.89967 9.55222,-5.23596 19.15823,-10.4028 28.28792,-16.35444 1.91523,-0.84357 3.90946,-0.83732 5.33732,-2.61065 4.75451,-3.97084 9.76381,-7.6211 15.08502,-10.79114 8.69115,-5.9622 16.47024,-13.10174 23.79477,-20.64627 9.26803,-8.97677 19.40983,-17.14773 30.63972,-23.54187 1.06705,-0.93023 3.66168,-0.92826 3.31464,-2.72142 0.63263,-1.777 -1.59369,-2.36427 -2.89301,-2.26334 -7.69823,2.43976 -15.36237,5.06259 -23.07837,7.39907 -13.41845,0.50272 -26.80779,1.57349 -40.13006,3.26118 -1.91301,0.32327 -6.317,0.60096 -2.30354,-0.99167 7.81602,-3.98958 16.80125,-5.72983 23.68896,-11.42413 4.98745,-3.88276 10.39785,-7.24008 15.16219,-11.38765 1.62762,-1.27842 1.95124,-3.87933 4.24703,-4.23168 1.82707,-0.63091 3.52956,-1.44051 4.68326,-3.05674 5.25733,-5.27636 8.0065,-12.47884 13.38972,-17.66872 9.75645,-11.68449 19.3971,-23.59287 27.16734,-36.71847 1.57185,-2.76724 2.73838,-5.81647 5.22882,-7.92248 6.28553,-6.90968 13.09882,-13.4209 18.48313,-21.07716 2.07782,-2.39911 0.0352,-2.99028 -2.04686,-2.60328 -2.42799,1.22072 -4.5702,3.30803 -6.9442,4.75769 -4.90769,3.39164 -9.95008,6.80261 -15.46477,9.0833 -5.10108,0.99703 -10.17285,2.2734 -15.29205,3.09747 -2.24544,-2.9e-4 -4.49076,0.018 -6.73603,0.0431 3.42688,-5.94686 8.66702,-10.58308 12.90405,-15.93997 0.97294,-1.36407 2.80192,-2.41368 2.3082,-4.31656 -0.51876,-2.02841 1.57117,-3.10609 2.52099,-4.60713 2.72646,-4.02544 4.82483,-8.48559 7.61606,-12.50444 4.52305,-6.84346 7.93684,-14.3239 11.75296,-21.55104 5.35752,-6.865 10.93972,-13.58509 16.15751,-20.5402 1.44595,-2.79825 2.87823,-5.60349 4.30348,-8.41233 -1.0847,-1.12834 -2.16678,-2.79845 -3.26705,-0.71797 -6.22618,6.08196 -12.46136,12.15469 -18.70039,18.22349 -8.35256,2.68611 -16.95097,4.57998 -25.71063,5.26257 -5.79116,0.80255 -11.65301,1.56885 -17.33714,2.88107 -2.58213,0.98389 -5.03259,2.55528 -7.68024,3.21251 -1.28592,-0.30375 -4.08668,0.91491 -3.49696,-1.27387 -0.13151,-1.74798 0.24311,-3.71106 -0.19707,-5.32785 -3.00679,-3.1434 -3.56656,-7.85937 -4.78275,-11.87639 0.34749,-2.70789 -2.89244,-3.74925 -2.85153,-6.26066 -1.13172,-9.39512 -6.0426,-17.87431 -6.68532,-27.36547 -0.65483,-6.91696 -1.75927,-13.84197 -1.29564,-20.80681 0.10489,-7.38782 0.50137,-14.82088 0.46101,-22.17965 -0.59723,-1.56864 -1.21519,-3.12936 -1.84427,-4.68519 z m -50.74217,169.88885 c 2.06101,0.0476 2.2109,1.72807 2.35634,3.41238 0.18199,2.5454 1.51773,5.19042 0.2646,7.62232 -1.05367,3.20693 -2.12884,6.40669 -3.2021,9.60709 -1.8716,1.01595 -2.51154,0.42949 -2.11295,-1.64438 0.1383,-3.76864 -0.51596,-7.63283 0.7807,-11.2618 0.63781,-2.57854 1.27562,-5.15708 1.91341,-7.73561 z m -44.99128,2.51103 c 9.13119,7.35302 20.10079,11.88006 30.03954,17.98512 3.31531,1.912 6.50906,4.02238 9.74588,6.06195 0.27893,3.02487 -1.8381,5.48616 -3.24884,7.969 -1.54858,0.59676 -3.42758,0.75917 -4.07619,2.53915 -5.46518,7.93148 -11.1521,15.85191 -15.33847,24.52028 -0.52689,3.58881 -0.48917,7.31379 -1.43507,10.80684 -1.15233,2.77353 -1.86973,5.80298 -3.28296,8.42002 -1.57683,1.79357 -3.14453,3.5951 -4.70868,5.39972 -1.80978,0.41636 -2.77879,-0.31153 -2.92852,-2.16877 -0.84853,-1.8579 0.76382,-3.69794 1.09682,-5.54727 2.68967,-8.6236 7.20522,-16.60419 9.04758,-25.50107 1.01298,-3.10252 -0.18172,-6.41202 -0.20158,-9.58654 -0.98593,-10.01381 -4.83986,-19.45521 -9.09866,-28.47022 -1.17314,-2.45483 -1.45897,-5.30858 -2.46375,-7.76238 -1.33791,-1.26496 -2.67624,-2.5295 -4.01482,-3.79376 0.28924,-0.29069 0.57849,-0.58138 0.86772,-0.87207 z m -39.40691,64.28637 c 4.74128,3.23967 9.33724,6.75131 14.18195,9.80314 8.44083,3.37099 16.92958,6.63012 25.25092,10.29071 1.27064,2.14084 2.5413,4.28165 3.81195,6.42248 -2.21233,8.84131 -5.12567,17.54019 -8.50942,25.97181 -5.23434,5.81962 -8.89272,13.08076 -10.26647,20.77347 -1.68588,2.84163 -2.90978,6.08095 -5.33836,8.38216 -2.64776,0.16995 -2.67331,-4.09927 -1.05372,-5.5373 1.61223,-2.45307 3.64363,-4.70379 4.15318,-7.68916 0.86393,-3.13831 2.14212,-6.21444 2.7489,-9.39134 -0.064,-5.52839 0.0782,-11.09549 -0.15223,-16.59956 -2.02602,-5.61181 -3.87864,-11.30861 -5.97955,-16.879 -5.22007,-7.87259 -10.6823,-15.60835 -17.16931,-22.50375 -0.61018,-0.93373 -1.86261,-1.8064 -1.67784,-3.04366 z m 95.80273,24.46091 c -14.82734,4.38804 -29.91206,8.57214 -43.39668,16.36467 -3.38955,1.83151 -6.74276,3.72921 -10.11329,5.59538 0.003,-5.20041 2.68031,-9.92149 4.31894,-14.76267 0.2915,-1.80846 1.39848,-2.86123 3.20303,-3.13967 5.95987,-1.37178 12.02283,-2.41682 18.07902,-3.21849 9.303,-0.27974 18.60599,-0.55948 27.90898,-0.83922 z"
       id="path3533"
       inkscape:connector-curvature="0" />
  </g>
</svg>
